<svg xmlns="http://www.w3.org/2000/svg" width="41.622" height="41.622" viewBox="0 0 41.622 41.622">
  <g id="back-arrow" transform="translate(-13 -38)">
    <g id="Path_113" data-name="Path 113" transform="translate(13 38)" fill="#f6f6f6">
      <path d="M 20.81078720092773 41.12157821655273 C 18.06862640380859 41.12157821655273 15.40875720977783 40.58463668823242 12.90506744384766 39.52565765380859 C 10.48652744293213 38.50270843505859 8.314356803894043 37.03815841674805 6.448887348175049 35.17268753051758 C 4.583417415618896 33.30721664428711 3.118867158889771 31.13504791259766 2.095917224884033 28.71650695800781 C 1.036937236785889 26.21281814575195 0.4999971985816956 23.55294799804688 0.4999971985816956 20.81078720092773 C 0.4999971985816956 18.06862640380859 1.036937236785889 15.40875720977783 2.095917224884033 12.90506744384766 C 3.118867158889771 10.48652744293213 4.583417415618896 8.314356803894043 6.448887348175049 6.448887348175049 C 8.314356803894043 4.583417415618896 10.48652744293213 3.118867158889771 12.90506744384766 2.095917224884033 C 15.40875720977783 1.036937236785889 18.06862640380859 0.4999971985816956 20.81078720092773 0.4999971985816956 C 23.55294799804688 0.4999971985816956 26.21281814575195 1.036937236785889 28.71650695800781 2.095917224884033 C 31.13504791259766 3.118867158889771 33.30721664428711 4.583417415618896 35.17268753051758 6.448887348175049 C 37.03815841674805 8.314356803894043 38.50270843505859 10.48652744293213 39.52565765380859 12.90506744384766 C 40.58463668823242 15.40875720977783 41.12157821655273 18.06862640380859 41.12157821655273 20.81078720092773 C 41.12157821655273 23.55294799804688 40.58463668823242 26.21281814575195 39.52565765380859 28.71650695800781 C 38.50270843505859 31.13504791259766 37.03815841674805 33.30721664428711 35.17268753051758 35.17268753051758 C 33.30721664428711 37.03815841674805 31.13504791259766 38.50270843505859 28.71650695800781 39.52565765380859 C 26.21281814575195 40.58463668823242 23.55294799804688 41.12157821655273 20.81078720092773 41.12157821655273 Z" stroke="none"/>
      <path d="M 20.81078720092773 0.9999961853027344 C 18.13590812683105 0.9999961853027344 15.54156684875488 1.523658752441406 13.0998363494873 2.556415557861328 C 10.74090766906738 3.554168701171875 8.622158050537109 4.982738494873047 6.802448272705078 6.802448272705078 C 4.982738494873047 8.622158050537109 3.554168701171875 10.74090766906738 2.556415557861328 13.0998363494873 C 1.523658752441406 15.54156684875488 0.9999961853027344 18.13590812683105 0.9999961853027344 20.81078720092773 C 0.9999961853027344 23.48566627502441 1.523658752441406 26.08000755310059 2.556415557861328 28.52173614501953 C 3.554168701171875 30.88066673278809 4.982738494873047 32.99941635131836 6.802448272705078 34.81912612915039 C 8.622158050537109 36.63883590698242 10.74090766906738 38.06740570068359 13.0998363494873 39.06515884399414 C 15.54156684875488 40.09791564941406 18.13590812683105 40.62157821655273 20.81078720092773 40.62157821655273 C 23.48566627502441 40.62157821655273 26.08000755310059 40.09791564941406 28.52173614501953 39.06515884399414 C 30.88066673278809 38.06740570068359 32.99941635131836 36.63883590698242 34.81912612915039 34.81912612915039 C 36.63883590698242 32.99941635131836 38.06740570068359 30.88066673278809 39.06515884399414 28.52173614501953 C 40.09791564941406 26.08000755310059 40.62157821655273 23.48566627502441 40.62157821655273 20.81078720092773 C 40.62157821655273 18.13590812683105 40.09791564941406 15.54156684875488 39.06515884399414 13.0998363494873 C 38.06740570068359 10.74090766906738 36.63883590698242 8.622158050537109 34.81912612915039 6.802448272705078 C 32.99941635131836 4.982738494873047 30.88066673278809 3.554168701171875 28.52173614501953 2.556415557861328 C 26.08000755310059 1.523658752441406 23.48566627502441 0.9999961853027344 20.81078720092773 0.9999961853027344 M 20.81078720092773 -3.814697265625e-06 C 32.30426788330078 -3.814697265625e-06 41.62157821655273 9.317306518554688 41.62157821655273 20.81078720092773 C 41.62157821655273 32.30426788330078 32.30426788330078 41.62157821655273 20.81078720092773 41.62157821655273 C 9.317306518554688 41.62157821655273 -3.814697265625e-06 32.30426788330078 -3.814697265625e-06 20.81078720092773 C -3.814697265625e-06 9.317306518554688 9.317306518554688 -3.814697265625e-06 20.81078720092773 -3.814697265625e-06 Z" stroke="none" fill="#f6f6f6"/>
    </g>
    <g id="Group_1" data-name="Group 1" transform="translate(22.793 52.69)">
      <line id="Line_6" data-name="Line 6" x1="22.266" transform="translate(0 6.301)" fill="none" stroke="#004f54" stroke-linecap="round" stroke-width="3"/>
      <line id="Line_7" data-name="Line 7" x1="6" y2="6" transform="translate(0.207 0.31)" fill="none" stroke="#004f54" stroke-linecap="round" stroke-width="3"/>
      <line id="Line_8" data-name="Line 8" x1="6" y1="7" transform="translate(0.207 6.31)" fill="none" stroke="#004f54" stroke-linecap="round" stroke-width="3"/>
    </g>
  </g>
</svg>
