<svg xmlns="http://www.w3.org/2000/svg" width="63.601" height="55.427" viewBox="0 0 63.601 55.427">
  <g id="list-icon" transform="translate(-372 -598)">
    <rect id="Rectangle_38" data-name="Rectangle 38" width="39.59" height="48.64" transform="translate(372.146 598)" fill="#fff"/>
    <path id="Path_112" data-name="Path 112" d="M0,0H39.534V48.255H0Z" transform="translate(372 598)" fill="none"/>
    <path id="Path_91" data-name="Path 91" d="M27.977,40.139H22.163A1.166,1.166,0,0,1,21,38.977V33.163A1.166,1.166,0,0,1,22.163,32h5.814a1.166,1.166,0,0,1,1.163,1.163v5.814A1.166,1.166,0,0,1,27.977,40.139Z" transform="translate(356.814 574.721)" fill="#f6f6f6"/>
    <path id="Path_92" data-name="Path 92" d="M27.86,60.139h-5.7A1.166,1.166,0,0,1,21,58.977V53.163A1.166,1.166,0,0,1,22.163,52h5.814a1.166,1.166,0,0,1,1.163,1.163v5.7A1.29,1.29,0,0,1,27.86,60.139Z" transform="translate(356.814 566.348)" fill="#f6f6f6"/>
    <path id="Path_93" data-name="Path 93" d="M27.977,81.139H22.163A1.166,1.166,0,0,1,21,79.977V74.163A1.166,1.166,0,0,1,22.163,73h5.814a1.166,1.166,0,0,1,1.163,1.163v5.814A1.166,1.166,0,0,1,27.977,81.139Z" transform="translate(356.814 557.558)" fill="#f6f6f6"/>
    <path id="Path_94" data-name="Path 94" d="M27.977,40.139H22.163A1.166,1.166,0,0,1,21,38.977V33.163A1.166,1.166,0,0,1,22.163,32h5.814a1.166,1.166,0,0,1,1.163,1.163v5.814A1.166,1.166,0,0,1,27.977,40.139Z" transform="translate(356.814 574.721)" fill="none" stroke="#004f54" stroke-linecap="round" stroke-linejoin="round" stroke-miterlimit="10" stroke-width="2"/>
    <path id="Path_95" data-name="Path 95" d="M27.86,60.139h-5.7A1.166,1.166,0,0,1,21,58.977V53.163A1.166,1.166,0,0,1,22.163,52h5.814a1.166,1.166,0,0,1,1.163,1.163v5.7A1.29,1.29,0,0,1,27.86,60.139Z" transform="translate(356.814 566.348)" fill="none" stroke="#004f54" stroke-linecap="round" stroke-linejoin="round" stroke-miterlimit="10" stroke-width="2"/>
    <path id="Path_96" data-name="Path 96" d="M27.977,81.139H22.163A1.166,1.166,0,0,1,21,79.977V74.163A1.166,1.166,0,0,1,22.163,73h5.814a1.166,1.166,0,0,1,1.163,1.163v5.814A1.166,1.166,0,0,1,27.977,81.139Z" transform="translate(356.814 557.558)" fill="none" stroke="#004f54" stroke-linecap="round" stroke-linejoin="round" stroke-miterlimit="10" stroke-width="2"/>
    <path id="Path_97" data-name="Path 97" d="M56.813,68.767V24H27.163A1.166,1.166,0,0,0,26,25.163v43.6Z" transform="translate(354.721 578.07)" fill="#242c88" opacity="0.2"/>
    <rect id="Rectangle_40" data-name="Rectangle 40" width="39.59" height="48.64" transform="translate(383.312 604.787)" fill="#fff"/>
    <rect id="Rectangle_41" data-name="Rectangle 41" width="39.59" height="48.64" transform="translate(383.312 604.787)" fill="none"/>
    <line id="Line_30" data-name="Line 30" x2="6.787" transform="translate(402.541 619.492)" fill="none" stroke="#242c88" stroke-linecap="round" stroke-linejoin="round" stroke-miterlimit="10" stroke-width="2" opacity="0.2"/>
    <line id="Line_31" data-name="Line 31" x2="13.574" transform="translate(402.541 616.098)" fill="none" stroke="#242c88" stroke-linecap="round" stroke-linejoin="round" stroke-miterlimit="10" stroke-width="2" opacity="0.2"/>
    <path id="Path_98" data-name="Path 98" d="M48.977,52.139H43.163A1.166,1.166,0,0,1,42,50.977V45.163A1.166,1.166,0,0,1,43.163,44h5.814a1.166,1.166,0,0,1,1.163,1.163v5.814A1.166,1.166,0,0,1,48.977,52.139Z" transform="translate(348.023 569.697)" fill="#004f54"/>
    <path id="Path_99" data-name="Path 99" d="M45.3,50.4l1.686,1.57L50.3,48.6" transform="translate(346.642 567.772)" fill="none" stroke="#f6f6f6" stroke-linecap="round" stroke-linejoin="round" stroke-miterlimit="10" stroke-width="2"/>
    <line id="Line_32" data-name="Line 32" x2="6.787" transform="translate(402.541 630.803)" fill="none" stroke="#242c88" stroke-linecap="round" stroke-linejoin="round" stroke-miterlimit="10" stroke-width="2" opacity="0.2"/>
    <line id="Line_33" data-name="Line 33" x2="13.574" transform="translate(402.541 627.41)" fill="none" stroke="#242c88" stroke-linecap="round" stroke-linejoin="round" stroke-miterlimit="10" stroke-width="2" opacity="0.2"/>
    <path id="Path_100" data-name="Path 100" d="M48.977,72.139H43.163A1.166,1.166,0,0,1,42,70.977V65.163A1.166,1.166,0,0,1,43.163,64h5.7a1.29,1.29,0,0,1,1.279,1.279v5.7A1.166,1.166,0,0,1,48.977,72.139Z" transform="translate(348.023 561.325)" fill="#004f54"/>
    <path id="Path_101" data-name="Path 101" d="M45.3,70.644l1.686,1.57L50.3,68.9" transform="translate(346.642 559.274)" fill="none" stroke="#f6f6f6" stroke-linecap="round" stroke-linejoin="round" stroke-miterlimit="10" stroke-width="2"/>
    <line id="Line_34" data-name="Line 34" x2="6.787" transform="translate(402.541 643.246)" fill="none" stroke="#242c88" stroke-linecap="round" stroke-linejoin="round" stroke-miterlimit="10" stroke-width="2" opacity="0.2"/>
    <line id="Line_35" data-name="Line 35" x2="13.574" transform="translate(402.541 639.853)" fill="none" stroke="#242c88" stroke-linecap="round" stroke-linejoin="round" stroke-miterlimit="10" stroke-width="2" opacity="0.2"/>
    <path id="Path_102" data-name="Path 102" d="M48.977,92.139H43.163A1.166,1.166,0,0,1,42,90.977V85.163A1.166,1.166,0,0,1,43.163,84h5.814a1.166,1.166,0,0,1,1.163,1.163v5.814A1.166,1.166,0,0,1,48.977,92.139Z" transform="translate(348.023 552.953)" fill="#f6f6f6" stroke="#004f54" stroke-width="1"/>
    <path id="Path_103" data-name="Path 103" d="M48.977,52.139H43.163A1.166,1.166,0,0,1,42,50.977V45.163A1.166,1.166,0,0,1,43.163,44h5.814a1.166,1.166,0,0,1,1.163,1.163v5.814A1.166,1.166,0,0,1,48.977,52.139Z" transform="translate(348.023 569.697)" fill="none" stroke="#004f54" stroke-linecap="round" stroke-linejoin="round" stroke-miterlimit="10" stroke-width="2"/>
    <path id="Path_104" data-name="Path 104" d="M48.977,72.139H43.163A1.166,1.166,0,0,1,42,70.977V65.163A1.166,1.166,0,0,1,43.163,64h5.7a1.29,1.29,0,0,1,1.279,1.279v5.7A1.166,1.166,0,0,1,48.977,72.139Z" transform="translate(348.023 561.325)" fill="none" stroke="#004f54" stroke-linecap="round" stroke-linejoin="round" stroke-miterlimit="10" stroke-width="2"/>
    <path id="Path_105" data-name="Path 105" d="M48.977,92.139H43.163A1.166,1.166,0,0,1,42,90.977V85.163A1.166,1.166,0,0,1,43.163,84h5.814a1.166,1.166,0,0,1,1.163,1.163v5.814A1.166,1.166,0,0,1,48.977,92.139Z" transform="translate(348.023 552.953)" fill="none" stroke="#004f54" stroke-linecap="round" stroke-linejoin="round" stroke-miterlimit="10" stroke-width="2"/>
    <path id="Path_106" data-name="Path 106" d="M79.995,57.6,60.344,69.17,53.6,79.286l12.093-1.047,14.3-8.43Z" transform="translate(343.167 564.004)" fill="#242c88" opacity="0.2"/>
    <g id="Group_34" data-name="Group 34" transform="translate(397.058 605.573)">
      <path id="Path_107" data-name="Path 107" d="M87.413,44.742,65.553,66.6,54.1,70.613,58.112,59.16,79.972,37.3Z" transform="translate(-54.1 -33.07)" fill="#fff" stroke="#707070" stroke-width="1"/>
      <rect id="Rectangle_42" data-name="Rectangle 42" width="30.93" height="10.523" transform="translate(4.019 26.129) rotate(-45)" fill="#ffc408" stroke="#004f54" stroke-width="1"/>
      <rect id="Rectangle_43" data-name="Rectangle 43" width="30.93" height="3.081" transform="translate(9.263 31.384) rotate(-45)" fill="#242c88" stroke="#707070" stroke-width="1" opacity="0.2"/>
      <path id="Path_108" data-name="Path 108" d="M55.844,86,54.1,90.884l4.884-1.744Z" transform="translate(-54.1 -53.457)" fill="#5e61a3" stroke="#707070" stroke-width="1"/>
      <path id="Path_109" data-name="Path 109" d="M87.413,44.742,65.553,66.6,54.1,70.613,58.112,59.16,79.972,37.3Z" transform="translate(-54.1 -33.07)" fill="none" stroke="#004f54" stroke-linecap="round" stroke-linejoin="round" stroke-miterlimit="10" stroke-width="2"/>
      <path id="Path_110" data-name="Path 110" d="M106.042,41.7l3.488-3.488a2.422,2.422,0,0,0,0-3.488l-3.953-3.953a2.422,2.422,0,0,0-3.488,0L98.6,34.255Z" transform="translate(-72.728 -30.025)" fill="#f3877e" stroke="#707070" stroke-width="1"/>
      <path id="Path_111" data-name="Path 111" d="M106.042,41.7l3.488-3.488a2.422,2.422,0,0,0,0-3.488l-3.953-3.953a2.422,2.422,0,0,0-3.488,0L98.6,34.255Z" transform="translate(-72.728 -30.025)" fill="none" stroke="#004f54" stroke-linecap="round" stroke-linejoin="round" stroke-miterlimit="10" stroke-width="2"/>
      <line id="Line_36" data-name="Line 36" y1="15.29" x2="15.29" transform="translate(15.407 9.927)" fill="none" stroke="#004f54" stroke-linecap="round" stroke-linejoin="round" stroke-miterlimit="10" stroke-width="2"/>
      <line id="Line_37" data-name="Line 37" y1="3.546" x2="3.546" transform="translate(9.244 27.834)" fill="none" stroke="#004f54" stroke-linecap="round" stroke-linejoin="round" stroke-miterlimit="10" stroke-width="2"/>
      <rect id="Rectangle_44" data-name="Rectangle 44" width="4.302" height="10.523" transform="translate(24.149 6.025) rotate(-45)" fill="#fff" stroke="#707070" stroke-width="1"/>
      <rect id="Rectangle_45" data-name="Rectangle 45" width="4.302" height="10.523" transform="translate(24.149 6.025) rotate(-45)" fill="#242c88" stroke="#707070" stroke-width="1" opacity="0.2"/>
      <rect id="Rectangle_46" data-name="Rectangle 46" width="4.302" height="10.523" transform="translate(24.149 6.025) rotate(-45)" fill="none" stroke="#004f54" stroke-linecap="round" stroke-linejoin="round" stroke-miterlimit="10" stroke-width="2"/>
    </g>
  </g>
</svg>
