<svg id="Layer_1" data-name="Layer 1" xmlns="http://www.w3.org/2000/svg" viewBox="0 0 792.783 414.061">
  <path d="M367.236,62.839c70.533,33.039,120.749,38.221,178.556-25.252S696.641-5.721,755.365,73.66s38.8,187.009-64.59,233.613c-105.72,47.652-110.673-3.034-212.233-18.814-95.1-14.776-126.717,47.516-218.542,99.6S18.947,418,9.633,247.15C4.972,161.655,18.652,41.415,153.8,14.44,261.5-7.055,313.233,37.543,367.236,62.839Z" fill="#fafbff"></path>
  <g>
    <path d="M759.6,379.394s-27.07-164.049,14.765-174.95-.684,183.209-.684,183.209" fill="#dee8f5"></path>
    <path d="M755.561,368.6S680.1,261.367,710.671,230.8s61.214,137.8,61.214,137.8" fill="#8ddbe0"></path>
    <rect x="737.849" y="358.401" width="48.352" height="55.66" fill="#004F54"></rect>
  </g>
  <g>
    <polygon points="672.713 368.392 684.844 414.061 667.718 414.061 648.451 368.392 672.713 368.392" fill="#dee8f5"></polygon>
    <polygon points="182.066 368.392 169.935 414.061 187.061 414.061 206.327 368.392 182.066 368.392" fill="#dee8f5"></polygon>
    <g>
      <polygon points="594.689 368.392 606.82 414.061 589.694 414.061 570.428 368.392 594.689 368.392" fill="#c1d8ed"></polygon>
      <polygon points="104.042 368.392 91.911 414.061 109.037 414.061 128.304 368.392 104.042 368.392" fill="#c1d8ed"></polygon>
    </g>
    <path d="M105.879,302.6H576L561.545,145.4a21.856,21.856,0,0,0-21.765-19.856H113.561A21.855,21.855,0,0,0,91.708,147.4q0,1,.092,2Z" fill="#c1d8ed"></path>
    <rect x="551.262" y="211.825" width="150.032" height="164.705" fill="#c1d8ed"></rect>
    <path d="M148.649,302.6H610.628L596.177,145.4a21.856,21.856,0,0,0-21.765-19.856H156.331A21.856,21.856,0,0,0,134.474,147.4q0,1,.092,2Z" fill="#dee8f5"></path>
    <g opacity="0.48">
      <path d="M148.649,302.6H610.628L596.177,145.4a21.856,21.856,0,0,0-21.765-19.856H156.331A21.856,21.856,0,0,0,134.474,147.4q0,1,.092,2Z" fill="#c1d8ed"></path>
    </g>
    <path d="M203.664,383.244H75.886a22.253,22.253,0,0,1-22.253-22.253h0V234.078a22.253,22.253,0,0,1,22.253-22.253H203.664V383.244Z" fill="#c1d8ed"></path>
    <path d="M203.664,383.245h497.63a24.415,24.415,0,0,0,24.414-24.414h0V236.239a24.414,24.414,0,0,0-48.828,0v98.177H228.08V236.239a24.415,24.415,0,0,0-48.829,0V358.83A24.416,24.416,0,0,0,203.664,383.245Z" fill="#dee8f5"></path>
    <path d="M689.663,338.449H227.746V286.224H689.663a15.6,15.6,0,0,1,15.6,15.6h0v21.022a15.6,15.6,0,0,1-15.6,15.6Z" fill="#f3f5fd"></path>
    <g opacity="0.15">
      <path d="M689.663,338.449H227.746V286.224H689.663a15.6,15.6,0,0,1,15.6,15.6h0v21.022a15.6,15.6,0,0,1-15.6,15.6Z" fill="#c1d8ed"></path>
    </g>
  </g>
  <path d="M244.962,196.753c14.289,1.348,32.715,1.874,49.874-1.282a15.183,15.183,0,0,1,17.731,17.175c-2.261,15.074-3.941,33.093,2.918,54.381A14.532,14.532,0,0,1,300.7,285.946c-15.112-.95-35.246-1.478-54.067.377a15.168,15.168,0,0,1-16.261-18.668c3.2-13.048,4.507-30.665-1.39-51.487a15.221,15.221,0,0,1,15.98-19.415Z" fill="#dee8f5"></path>
  <path d="M391.311,196.753c14.29,1.348,32.715,1.874,49.875-1.282a15.184,15.184,0,0,1,17.73,17.175c-2.261,15.074-3.941,33.093,2.919,54.381a14.533,14.533,0,0,1-14.782,18.919c-15.113-.95-35.247-1.478-54.068.377a15.168,15.168,0,0,1-16.261-18.668c3.2-13.048,4.507-30.665-1.389-51.487a15.221,15.221,0,0,1,15.976-19.415Z" fill="#dee8f5"></path>
  <path d="M515.047,196.753c14.29,1.348,32.715,1.874,49.875-1.282a15.184,15.184,0,0,1,17.73,17.175c-2.261,15.074-3.941,33.093,2.919,54.381a14.533,14.533,0,0,1-14.782,18.919c-15.113-.95-35.247-1.478-54.068.377a15.168,15.168,0,0,1-16.261-18.668c3.2-13.048,4.507-30.665-1.389-51.487a15.221,15.221,0,0,1,15.976-19.415Z" fill="#dee8f5"></path>
  <g>
    <path d="M76.605,330.222c-5-1.636-10.132.2-15.041,3.935,6.467-16.33,9.136-31.08-1.92-31.745-7.736-.464-13.662,5.47-18.164,13.908-1.583-14.835-5.668-25.9-14.819-22.231-10.046,4.027-11.574,17.829-10.05,32.271-4.426-7.376-9.191-11.49-13.518-7.163C-9.82,332.11,21.876,368.5,21.876,368.5h7.871l4.493,4.877c-.91,1.923-1.408,3.068-1.408,3.068l5.706,11.612S97.356,337.015,76.605,330.222Z" fill="#8ddbe0"></path>
    <polygon points="62.492 414.061 17.942 414.061 10.484 362.054 69.949 362.054 62.492 414.061" fill="#dee8f5"></polygon>
  </g>
  <g>
    <path d="M245.9,83.781l2.351-11.607S234,63.927,220.4,70.575c-4.507,2.2-2.1,7.339-.367,7.494,5.715.514,13.347-.567,17.507,2.079-2.168.589-5.081,1.571-4.841,2.541C233.335,85.24,245.9,83.781,245.9,83.781Z" fill="#E98862"></path>
    <path d="M509.32,270.968c-6.4-4.711-14.128-10.309-15.443-11.14.084.053.155.093.211.125l10.359-18.267c.548.311,2.214,1.255,17.316,12.366Z" fill="#E98862"></path>
    <path d="M543.634,237.04a4.108,4.108,0,0,0-1.572-5.592c-.088-.049-.177-.095-.268-.137h0a4.109,4.109,0,0,0-4.381.571L518.234,249.1a3.467,3.467,0,0,0-1.139,2.656,19.111,19.111,0,0,1-2.7,11.653,17.024,17.024,0,0,1-7.154,6.083,1.547,1.547,0,0,0-.2,2.791l10.4,5.9a2.68,2.68,0,0,0,3.652-1.011l0-.007Z" fill="#c1d8ed"></path>
    <path d="M570.95,281.815s-21.414-3.42-23.312-3.718l3.246-20.747c1.9.3,23.378,3.728,23.378,3.728Z" fill="#E98862"></path>
    <path d="M511.1,247.653l2.628-5.929c-27.694-11.494-52.115-28.113-79.417-40.5-10.111-5.222-31.435-18.332-45.9-12.215-31.173,9.748-154.929,48.482-154.929,48.482s-.976,10.539-1.155,14.1c-2.3,45.942,65.359,31.66,95.838,34.112,50.774.1,183.278.291,235.93.4l.534-37Zm-79.006-2.144-74.524-2.022c12.893-4.953,25.536-9.91,37.237-14.013,12.305,5.242,24.793,10.6,37.285,16.035ZM310.6,235.72l-.267.079-.234-1.6C310.288,234.7,310.459,235.206,310.6,235.72Z" fill="#262626"></path>
    <path d="M586.232,237.111a4.107,4.107,0,0,0-3.444-4.677c-.1-.015-.2-.027-.3-.034h0a4.1,4.1,0,0,0-3.9,2.081l-11.866,22.884a3.457,3.457,0,0,0-.128,2.887,19.112,19.112,0,0,1,1.588,11.856,17.043,17.043,0,0,1-4.547,8.216,1.547,1.547,0,0,0,.8,2.683l11.809,1.847a2.678,2.678,0,0,0,3.059-2.233l0-.01Z" fill="#c1d8ed"></path>
    <path d="M271.711,135.164l-14.362-16.4,33.684-26.615-47.309-3.412,1.568-21.747,73.35,5.29a10.9,10.9,0,0,1,6.4,19.076Z" fill="#004F54"></path>
    <path d="M314.885,217.988c-.4,10.494-75.63,44.176-82.818,28.8-4.575-9.787.85-22.008-6.794-41.578s-35.412-37.528-26.473-57.929c2.595-5.92,8.871-11.538,17.827-15.048,2.712,4.964,34.445-7.411,32.686-12.628,1.218-.455,2.166-.8,2.764-1.005,31.426-10.74,31.584,29.736,41.38,55.691C304.9,204.666,315.3,207.176,314.885,217.988Z" fill="#004F54"></path>
    <path d="M189.074,106.461l-8.959-7.746s6.231-15.239,21.057-18.3c4.914-1.014,6.147,4.523,4.874,5.7-4.207,3.9-10.907,7.713-12.58,12.351,2.075-.859,4.981-1.864,5.384-.95C199.909,99.93,189.074,106.461,189.074,106.461Z" fill="#E98862"></path>
    <path d="M249.313,119.6c1.759,5.217,1.917,13.841-6.458,17.767-11.162,5.23-23.516-.175-26.228-5.139l.028-.011C227.935,127.814,242.7,122.069,249.313,119.6Z" fill="#E98862"></path>
    <g>
      <path d="M220.089,134.91s6.131-6.246-1.881-25.795l14.333-7.654s4,18.537,13.513,21.807Z" fill="#E98862"></path>
      <g opacity="0.15">
        <path d="M241.741,120.5l-15.722-5.666,9.9-3.255A28.762,28.762,0,0,0,241.741,120.5Z"></path>
      </g>
      <path d="M207.1,104.073c2.986,5.755,8.138,10.467,14.133,10.731,7.117.312,11.891-1.028,19.243-3.36,10.032-3.182,6.382-13.54,3.319-24.173-3.075-10.676-7.519-21.764-12.654-24.195-10.25-4.853-32,7.179-30.919,20.39C200.78,90.3,204.257,98.6,207.1,104.073Z" fill="#E98862"></path>
      <path d="M241.826,59.557c-3.631-5.622-9.815-6.97-17.748-1.965-5.642,3.559-6.88,2.361-12.884,1.5-3.44-.489-13.018,3.271-13.341,10.665-.346,7.921-10.2,4.721-7.281,16.521,2.446,9.875,8.307,21.849,21.741,26.9h0a27.284,27.284,0,0,0,7.178,2.543c1.084.253,1.165-.259,1.161-1.372-.017-3.935-1.724-17.17-5.88-27.062-.683-1.627-1.2-4.331,3.043-5.875,4.631-1.686,17.165-4.5,20.5-8.964C238.314,72.451,245.456,65.179,241.826,59.557Z" fill="#0f1011"></path>
      <g>
        <circle cx="229.02" cy="90.437" r="1.449" fill="#0f1011"></circle>
        <circle cx="239.633" cy="86.087" r="1.449" fill="#0f1011"></circle>
        <path d="M237.372,83.513a.681.681,0,0,1-.356-1.314l3.673-1.115a.681.681,0,0,1,.4,1.3L237.412,83.5Z" fill="#0f1011"></path>
        <path d="M225.2,88.893a.681.681,0,0,1-.51-1.245l3.332-2.012a.681.681,0,1,1,.776,1.119.731.731,0,0,1-.076.046l-3.332,2.012A.691.691,0,0,1,225.2,88.893Z" fill="#0f1011"></path>
      </g>
      <path d="M222.908,96.1a6.143,6.143,0,0,1-11.368,4.659,6.042,6.042,0,0,1,3.165-7.937c.063-.027.126-.053.189-.077C219.024,91.281,221.621,92.956,222.908,96.1Z" fill="#E98862"></path>
      <g opacity="0.15">
        <path d="M237.581,96.153a.5.5,0,0,1-.435-.888l2.535-1.753-3.353-3.753a.5.5,0,1,1,.746-.666l3.73,4.174a.5.5,0,0,1-.039.706.466.466,0,0,1-.049.039l-3,2.076A.525.525,0,0,1,237.581,96.153Z"></path>
      </g>
      <path d="M233.11,101.112s5.269-1.08,8.446-3.462c0,0,1.037,3.367-2.892,4.977S233.11,101.112,233.11,101.112Z" fill="#fff"></path>
    </g>
    <path d="M141.639,169.664A10.9,10.9,0,0,1,133,152.11l46.282-60.1,17.275,13.3-30.695,39.864,43.711-8.851,2.619,22.765L142.816,169.6A10.849,10.849,0,0,1,141.639,169.664Z" fill="#004F54"></path>
  </g>
  <path d="M228.079,334.416V236.239a24.415,24.415,0,0,0-48.829,0" fill="#dee8f5"></path>
  <g>
    <rect x="608.402" y="33.664" width="40.697" height="11.992" transform="translate(280.029 564.344) rotate(-60)" fill="#dee8f5"></rect>
    <rect x="644.497" y="19.311" width="11.992" height="40.697" fill="#dee8f5"></rect>
    <rect x="574.655" y="8.263" width="11.992" height="51.745" fill="#dee8f5"></rect>
    <rect x="586.988" y="19.311" width="11.992" height="40.697" fill="#004F54"></rect>
    <rect x="562.662" y="14.082" width="11.992" height="45.927" fill="#004F54"></rect>
    <rect x="599.168" y="12.649" width="14.151" height="47.36" fill="#9ebcea"></rect>
    <g>
      <g>
        <path d="M543.448,46.486s.058-20.242-10.109-24.47,5.054,24.47,5.054,24.47Z" fill="#dee8f5"></path>
        <path d="M538.393,46.486s-5.309-37.894,5.54-37.894-.485,37.894-.485,37.894" fill="#dee8f5"></path>
        <path d="M541.646,48.155s5.091-33.774,14.172-31.064-10.6,32.129-10.6,32.129Z" fill="#dee8f5"></path>
      </g>
      <rect x="531.636" y="36.328" width="23.68" height="23.68" fill="#8ddbe0"></rect>
    </g>
    <rect x="521.988" y="60.008" width="38.563" height="5.262" fill="#c1d8ed"></rect>
    <rect x="553.189" y="60.008" width="109.295" height="5.262" fill="#dee8f5"></rect>
  </g>
</svg>